<?xml version="1.0" encoding="utf-8"?>
<!-- Generator: Adobe Illustrator 22.1.0, SVG Export Plug-In . SVG Version: 6.00 Build 0)  -->
<svg version="1.1" id="EsportLogo" xmlns="http://www.w3.org/2000/svg" xmlns:xlink="http://www.w3.org/1999/xlink" x="0px" y="0px"
	 width="84px" height="40px" viewBox="0 0 84 40" style="enable-background:new 0 0 84 40;" xml:space="preserve">
<style type="text/css">
	.st0{fill:#FFBA00;}
	.st1{fill:#CBCDD9;}
	.st2{fill:#FDFFFF;}
	.st3{fill:#FF3300;}
	.st4{fill:#4D505B;}
</style>
<g id="ESport">
	<path class="st0" d="M52,3.9c0-1,0.8-1.9,1.9-1.9h3.3c1,0,1.9,0.8,1.9,1.9V6h-7V3.9z M26,6h7V3.9c0-1-0.8-1.9-1.9-1.9h-3.3
		c-1,0-1.9,0.8-1.9,1.9V6z"/>
	<path class="st1" d="M18.7,24H33l3-3h13l3,3h14.3L63,16c0.6-1,1-3,1-4c0-5-4-8-8-8c-6,0-7,3-7,3H36c0,0-1-3-7-3c-4,0-8,3-8,8
		c0,1,0.4,3,1,4L18.7,24z"/>
	<path class="st2" d="M36,12c0,3.9-3.1,7-7,7s-7-3.1-7-7s3.1-7,7-7S36,8.1,36,12z M56,5c-3.9,0-7,3.1-7,7s3.1,7,7,7s7-3.1,7-7
		S59.9,5,56,5z"/>
	<path class="st3" d="M54,12c0,1.1-0.9,2-2,2c-1.1,0-2-0.9-2-2c0-1.1,0.9-2,2-2C53.1,10,54,10.9,54,12z M60,10c-1.1,0-2,0.9-2,2
		c0,1.1,0.9,2,2,2c1.1,0,2-0.9,2-2C62,10.9,61.1,10,60,10z M41,11.6v-0.9c0-0.2-0.2-0.4-0.4-0.4h-2.3c-0.2,0-0.4,0.2-0.4,0.4v0.9
		c0,0.2,0.2,0.4,0.4,0.4h2.3C40.8,12,41,11.8,41,11.6z M47,11.6v-0.9c0-0.2-0.2-0.4-0.4-0.4h-2.3c-0.2,0-0.4,0.2-0.4,0.4v0.9
		c0,0.2,0.2,0.4,0.4,0.4h2.3C46.8,12,47,11.8,47,11.6z"/>
	<path class="st4" d="M58,8c0,1.1-0.9,2-2,2s-2-0.9-2-2c0-1.1,0.9-2,2-2S58,6.9,58,8z M56,14c-1.1,0-2,0.9-2,2c0,1.1,0.9,2,2,2
		s2-0.9,2-2C58,14.9,57.1,14,56,14z M21,14c0,3.8,1.3,5,5,5C23.5,17.7,22.3,16.5,21,14z M59,19c3.8,0,5-1.2,5-5
		C62.8,16.5,61.5,17.7,59,19z M39,14c-1.1,0-2,0.9-2,2s0.9,2,2,2c1.1,0,2-0.9,2-2S40.1,14,39,14z M46,14c-1.1,0-2,0.9-2,2s0.9,2,2,2
		c1.1,0,2-0.9,2-2S47.1,14,46,14z M31,16V8c0-0.6-0.4-1-1-1h-2c-0.6,0-1,0.4-1,1v8c0,0.6,0.4,1,1,1h2C30.6,17,31,16.6,31,16z M34,13
		v-2c0-0.6-0.4-1-1-1h-8c-0.6,0-1,0.4-1,1v2c0,0.6,0.4,1,1,1h8C33.6,14,34,13.6,34,13z"/>
	<path class="st2" d="M30,9h-2l1-2L30,9z M29,17l1-2h-2L29,17z M34,12l-2-1v2L34,12z M24,12l2,1v-2L24,12z"/>
	<path class="st0" d="M24.2,33h-3l0.7-3h3L24.2,33z M61.5,27l-1.2,5c-0.5,2-2.5,2-2.5,2l1.1,4h-3.1l-1-4L54,38h-3l3-13h6
		C60,25,62,25,61.5,27z M57.3,28h-1l-0.7,3h1c1,0,1.2-1,1.2-1l0.2-1C58.1,29,58.3,28,57.3,28z M31.8,30h-2c0,0-1,0-0.8-1
		s1.2-1,1.2-1h4l0.7-3h-6c-2,0-2.5,2-2.5,2l-0.9,4c0,0-0.5,2,1.5,2h2c0,0,1,0,0.8,1s-1.2,1-1.2,1h-4L24,38h6c2,0,2.5-2,2.5-2l0.9-4
		C33.8,30,31.8,30,31.8,30z M70,25h-7l-0.7,3h2L62,38h3l2.3-10h2L70,25z M15.2,33h4l0.7-3h-4l0.5-2h6l0.7-3h-7c0,0-6,0-11-4
		c1,3.5,6,7,6,7l-5-1c2,3,5,4,5,4s-2,1.1-2,1c0.6,0.6,2,1.3,3,1.6L11,38h9l0.7-3h-6L15.2,33z M52.5,27l-2.1,9C50,38,48,38,48,38h-4
		c0,0-2,0-1.5-2l2.1-9c0,0,0.5-2,2.5-2h4C53,25,52.5,27,52.5,27z M48.3,28c-1,0-1.2,1-1.2,1l-1.2,5c0,0-0.2,1,0.8,1s1.2-1,1.2-1
		l1.2-5C49.1,29,49.3,28,48.3,28z M43.5,27l-1.2,5c0,0-0.5,2-2.5,2h-3L36,38h-3l3-13h6C44,25,43.5,27,43.5,27z M39.3,28h-1l-0.7,3h1
		c1,0,1.2-1,1.2-1l0.2-1C40.1,29,40.3,28,39.3,28z M74.3,28h4l0.7-3h-6c-2,0-2.5,2-2.5,2l-0.9,4c0,0-0.5,2,1.5,2h2c0,0,1,0,0.8,1
		s-1.2,1-1.2,1h-4L68,38h6c2,0,2.5-2,2.5-2l0.9-4c0.5-2-1.5-2-1.5-2h-2c0,0-1,0-0.8-1S74.3,28,74.3,28z"/>
</g>
</svg>
