<?xml version="1.0" standalone="no"?>
<!DOCTYPE svg PUBLIC "-//W3C//DTD SVG 20010904//EN"
 "http://www.w3.org/TR/2001/REC-SVG-20010904/DTD/svg10.dtd">
<svg version="1.0" xmlns="http://www.w3.org/2000/svg"
 width="16.000000pt" height="16.000000pt" viewBox="0 0 16.000000 16.000000"
 preserveAspectRatio="xMidYMid meet">
<metadata>
Created by potrace 1.11, written by Peter Selinger 2001-2013
</metadata>
<g transform="translate(0.000000,16.000000) scale(0.008889,-0.008889)"
fill="#000000" stroke="none">
<path d="M1303 1771 c-17 -26 -73 -41 -118 -31 -32 7 -40 5 -72 -25 -38 -35
-83 -48 -120 -34 -15 6 -26 2 -39 -13 -33 -36 -67 -47 -127 -42 -47 4 -57 3
-57 -11 0 -8 -15 -24 -32 -35 -26 -16 -45 -19 -92 -15 -58 5 -60 4 -90 -31
-33 -38 -62 -44 -141 -30 -34 6 -44 4 -60 -14 -31 -34 -72 -51 -125 -52 -27 0
-53 2 -57 5 -5 3 -14 2 -21 -2 -8 -5 2 -22 31 -52 73 -78 94 -108 128 -179 68
-144 63 -281 -13 -392 -10 -15 -15 -29 -11 -31 9 -6 502 0 553 6 310 38 511
128 604 272 72 113 80 276 21 450 -24 69 -103 236 -122 257 -20 23 -25 22 -40
-1z"/>
<path d="M1456 1051 c-2 -3 -9 -26 -16 -51 -22 -81 -94 -165 -183 -212 -42
-23 -44 -23 -537 -25 -371 -2 -489 1 -472 9 24 12 35 42 35 95 0 34 -26 83
-46 84 -6 0 -21 2 -32 4 -31 6 -82 -24 -98 -58 -16 -33 -16 -125 -1 -190 4
-17 8 -34 9 -37 11 -48 76 -133 121 -158 18 -10 18 -12 -4 -41 -12 -17 -22
-32 -22 -35 0 -2 -27 -50 -59 -106 -32 -56 -58 -109 -57 -118 2 -14 15 -17 62
-17 32 -1 66 3 75 7 10 4 68 93 130 197 95 158 118 190 140 193 14 2 31 2 37
0 6 -2 -39 -85 -99 -186 -63 -104 -107 -189 -104 -197 9 -24 133 -19 151 6 8
10 62 99 121 197 l108 178 38 0 38 0 -19 -27 c-58 -83 -202 -334 -202 -350 0
-18 7 -19 72 -18 l72 1 92 152 c51 84 94 156 96 160 2 4 14 24 27 45 19 31 28
37 57 37 l35 0 -27 -47 c-14 -27 -47 -84 -72 -128 -53 -91 -59 -112 -34 -119
27 -8 778 -5 791 4 14 8 -5 32 -41 51 -59 31 -163 139 -194 201 -33 65 -35
142 -7 191 11 19 51 74 88 123 75 98 97 140 88 173 -5 20 -11 21 -79 20 -41
-1 -76 -4 -78 -8z"/>
</g>
</svg>
